<?xml version="1.0" ?><!DOCTYPE svg  PUBLIC '-//W3C//DTD SVG 1.1//EN'  'http://www.w3.org/Graphics/SVG/1.1/DTD/svg11.dtd'><svg enable-background="new 0 0 141.732 141.732" height="141.732px" id="Livello_1" version="1.1" viewBox="0 0 141.732 141.732" width="141.732px" xml:space="preserve" xmlns="http://www.w3.org/2000/svg" xmlns:xlink="http://www.w3.org/1999/xlink"><g id="Livello_109"><path d="M8.158,100.615h8.158V13.596H8.158C3.651,13.596,0,17.249,0,21.755v70.702C0,96.96,3.651,100.615,8.158,100.615    M79.765,13.596H61.636c0-5.007,4.058-9.064,9.065-9.064C75.707,4.532,79.765,8.591,79.765,13.596 M21.754,100.615h97.895V13.596   H84.297C84.297,6.086,78.211,0,70.701,0S57.104,6.086,57.104,13.596h-35.35V100.615z M141.403,92.457L141.403,92.457V21.755   c0-4.503-3.651-8.158-8.159-8.158h-8.158v87.019h8.158C137.752,100.615,141.403,96.96,141.403,92.457"/></g><g id="Livello_1_1_"/></svg>